<svg xmlns="http://www.w3.org/2000/svg" version="1.0" viewBox="0 0 400 400">
  <path d="m186 0-12 2a234 234 0 0 0-79 28c-2 2-2 2 1 1a299 299 0 0 1 176 28l29 19 2 3-3 2-24 14c-6 3-7 3-12 3-10-1-22-6-37-14-21-12-45-23-65-30-18-6-19-7-41-6-21 0-28 1-52 7-10 3-11 3-16 9L40 81l-7 10 2 2 9 5a116 116 0 0 1 13 8l10 5 35 20 38 22 16 9 23 13 20 11c2 0 18-8 27-14l9-5 3-2-12-8a881 881 0 0 0-62-36 5615 5615 0 0 0-60-34l-9-5 5-1h39l18 4a322 322 0 0 1 70 35c12 7 28 14 39 17 15 5 14 5 26-3l15-8 10-6a297 297 0 0 1 26-17 214 214 0 0 1 22-13 210 210 0 0 0-80-70 201 201 0 0 0-99-20z"/>
  <path d="M19 116c-6 13-12 33-15 52-2 10-2 51 0 60a217 217 0 0 0 48 103 202 202 0 0 0 133 66h4V261l-6-4-11-6a404 404 0 0 1-22-13l-1 54-1 56-29-13a158 158 0 0 1-74-166l6 3a981 981 0 0 0 85 49l7 4 14 8 27 15 5 3v-46l-10-6-14-8a1899 1899 0 0 1-36-21l-21-12a587 587 0 0 0-40-23 467 467 0 0 0-45-26l-4 7z"/>
  <path d="m373 111-9 5-8 5a3533 3533 0 0 0-112 64l-13 8-12 7-8 5v22l1 22 26-13 8-5 1 80 1 80 34-11 5-3V207l9-5 15-8 10-6 4-2a427 427 0 0 0 30-16l3 20a170 170 0 0 1-41 115l-5 6v52l6-5a224 224 0 0 0 54-60 196 196 0 0 0 5-188l-4 2z"/>
</svg>